<svg width="40" height="40" viewBox="0 0 40 40" fill="none" xmlns="http://www.w3.org/2000/svg">
<circle opacity="0.1" cx="20" cy="20" r="19.5" stroke="#181817"/>
<path d="M27.4913 16.7237C27.4554 15.9102 27.3239 15.3509 27.1354 14.8662C26.941 14.3518 26.6419 13.8912 26.25 13.5084C25.8671 13.1195 25.4035 12.8174 24.8951 12.626C24.4076 12.4376 23.8512 12.306 23.0377 12.2701C22.2181 12.2312 21.9579 12.2222 19.8792 12.2222C17.8004 12.2222 17.5402 12.2312 16.7236 12.2671C15.9101 12.303 15.3508 12.4346 14.8663 12.623C14.3517 12.8174 13.8912 13.1165 13.5083 13.5084C13.1195 13.8912 12.8174 14.3548 12.626 14.8633C12.4375 15.3509 12.3059 15.9071 12.2701 16.7207C12.2312 17.5403 12.2222 17.8005 12.2222 19.8792C12.2222 21.958 12.2312 22.2182 12.267 23.0347C12.3029 23.8483 12.4346 24.4076 12.623 24.8922C12.8174 25.4066 13.1195 25.8672 13.5083 26.2501C13.8912 26.6389 14.3548 26.941 14.8633 27.1324C15.3508 27.3209 15.9071 27.4524 16.7207 27.4883C17.5372 27.5243 17.7975 27.5332 19.8762 27.5332C21.955 27.5332 22.2152 27.5243 23.0318 27.4883C23.8453 27.4524 24.4046 27.3209 24.8891 27.1324C25.9181 26.7346 26.7316 25.9211 27.1294 24.8922C27.3178 24.4046 27.4495 23.8483 27.4853 23.0347C27.5212 22.2182 27.5302 21.958 27.5302 19.8792C27.5302 17.8005 27.5272 17.5403 27.4913 16.7237ZM26.1125 22.9749C26.0796 23.7227 25.954 24.1265 25.8493 24.3956C25.592 25.0627 25.0626 25.5921 24.3956 25.8493C24.1264 25.954 23.7197 26.0796 22.9749 26.1124C22.1673 26.1484 21.9251 26.1573 19.8822 26.1573C17.8393 26.1573 17.5941 26.1484 16.7894 26.1124C16.0417 26.0796 15.6379 25.954 15.3687 25.8493C15.0368 25.7267 14.7346 25.5322 14.4894 25.278C14.2351 25.0297 14.0407 24.7306 13.918 24.3987C13.8134 24.1295 13.6878 23.7227 13.6549 22.978C13.6189 22.1704 13.6101 21.9281 13.6101 19.8852C13.6101 17.8423 13.6189 17.5971 13.6549 16.7925C13.6878 16.0448 13.8134 15.641 13.918 15.3718C14.0407 15.0397 14.2351 14.7377 14.4924 14.4924C14.7406 14.2381 15.0397 14.0437 15.3717 13.9211C15.6409 13.8165 16.0477 13.6909 16.7925 13.6579C17.6 13.622 17.8424 13.613 19.8851 13.613C21.931 13.613 22.1732 13.622 22.9779 13.6579C23.7256 13.6909 24.1294 13.8165 24.3986 13.9211C24.7306 14.0437 25.0327 14.2381 25.2779 14.4924C25.5322 14.7406 25.7266 15.0397 25.8493 15.3718C25.954 15.641 26.0796 16.0477 26.1125 16.7925C26.1484 17.6001 26.1574 17.8423 26.1574 19.8852C26.1574 21.9281 26.1484 22.1673 26.1125 22.9749Z" fill="#181817"/>
<path d="M19.8784 15.9462C17.707 15.9462 15.9452 17.7079 15.9452 19.8794C15.9452 22.0509 17.707 23.8126 19.8784 23.8126C22.0499 23.8126 23.8116 22.0509 23.8116 19.8794C23.8116 17.7079 22.0499 15.9462 19.8784 15.9462ZM19.8784 22.4308C18.4697 22.4308 17.327 21.2882 17.327 19.8794C17.327 18.4706 18.4697 17.3281 19.8784 17.3281C21.2872 17.3281 22.4297 18.4706 22.4297 19.8794C22.4297 21.2882 21.2872 22.4308 19.8784 22.4308Z" fill="#181817"/>
<path d="M24.8855 15.7903C24.8855 16.2973 24.4744 16.7084 23.9674 16.7084C23.4604 16.7084 23.0493 16.2973 23.0493 15.7903C23.0493 15.2832 23.4604 14.8723 23.9674 14.8723C24.4744 14.8723 24.8855 15.2832 24.8855 15.7903Z" fill="#181817"/>
</svg>
